<svg id="Layer_1" data-name="Layer 1" xmlns="http://www.w3.org/2000/svg" viewBox="0 0 653.52 263.23"><defs><style>.cls-1{fill:#231f20;}</style></defs><title>liam</title><path class="cls-1" d="M213.94,179.42l-1.74,69.22H12.35v-8h6.94q15.09,0,20.91-3.82T47.65,225q1.65-8.07,1.65-37.56V72q0-28.1-1.65-36.26T40.72,24.5q-5.3-3.12-23.16-3.12H12.35v-8H125.29v8H114.88q-17.35,0-22.73,2.86T85,34.91Q83.14,42.71,83.13,72V195.21q0,25.5,1.39,31.92a14.82,14.82,0,0,0,7.55,10q6.15,3.56,26.45,3.56h17.87a161.73,161.73,0,0,0,18.89-1,78.85,78.85,0,0,0,13.29-2.86c9.1-2.63,17.11-6.4,20.44-8.51,17.64-11.13,16.86-46.41,16.78-48.91Z"/><path class="cls-1" d="M394.26,218.86h6.42q-1.56,29.67-29.14,29.67-11.81,0-18.65-6.24T344,223.72Q326.61,236,312.29,242.29t-25.59,6.24q-14.4,0-24.81-8.33t-10.4-22q0-17.86,17.43-31.23t48.14-26L344,150v-6.94q0-14.75-1.91-21.34t-9.88-11.79q-8-5.2-21-5.21-26,0-29,17.35-2.78,17.7-14.57,17.7-10.59,0-10.58-10.07,0-9.89,14-21.25t43.72-11.36q22,0,34.17,6.94t16,15.79q3.9,8.84,3.9,27.06v57.42q0,20.13,2.09,25.85t9,5.73Q391.49,235.87,394.26,218.86ZM344,158.15,325,165.78q-44.76,18.21-44.76,45.8,0,10.92,5.73,17.61a18.73,18.73,0,0,0,14.92,6.68q8.15,0,18.91-5.38T344,214.35Z"/><path class="cls-1" d="M412.77,100.83h1.74q5,11.63,5,29.84,11.63-14.92,25.07-22.38a58.61,58.61,0,0,1,28.88-7.46q17.52,0,28.45,8t15.27,23.94q13.18-16,27.06-23.94a56.12,56.12,0,0,1,28.28-8q16.49,0,27.93,7.63t13.88,17.35q2.43,9.72,2.43,31.4v42.68q0,24.81,1,30.19a10.94,10.94,0,0,0,5.55,8q4.61,2.59,17.09,2.6v8h-71v-8q11.27,0,15.87-2.52a10.73,10.73,0,0,0,5.64-7.63q1-5.12,1-30.62V152.53q0-14.4-1.65-21.69t-8.59-12.49q-6.93-5.2-18-5.2-11.28,0-22.64,7.63t-22.81,23.07v56q0,22.73.61,28.54a12.36,12.36,0,0,0,4.85,9q4.26,3.21,15.18,3.21v8h-68.7v-8q11.63,0,16.23-2.43a10.75,10.75,0,0,0,5.72-7.46q1.13-5,1.13-30.88V160.51q0-18.73-1.48-27.15T482.86,119q-7.46-6-18.56-6-10.76,0-21.95,6.94t-22.81,20.82v59.16q0,23.42.69,29.15a11.47,11.47,0,0,0,5.21,8.67q4.5,3,16.13,2.95v8H372v-8q11.46,0,16.05-2.52a10.75,10.75,0,0,0,5.64-7.54q1-5,1-30.71v-42.5q0-24.3-.78-29.76a11,11,0,0,0-5.38-8.24Q384,116.62,372,116.62v-8Q396.65,106.21,412.77,100.83Z"/><path class="cls-1" d="M230.68,100.72v99.06q0,22.72.69,28.63a12.32,12.32,0,0,0,5,9q4.33,3.12,15.44,3.12h3.65v8H179v-8h5.9q12.31,0,16-3.56a13.72,13.72,0,0,0,4.34-8.5q.62-4.94.61-28.71v-43q0-25-2.34-30.54t-6.25-6.94q-3.9-1.38-13.62-1.38H179v-8q30.89-3.12,47.88-9.2ZM197.19,28.21a17.65,17.65,0,0,1,5.3-12.84A17.2,17.2,0,0,1,215.24,10a16.94,16.94,0,0,1,12.66,5.38,17.81,17.81,0,0,1,5.21,12.84,18,18,0,0,1-5.21,13,17,17,0,0,1-12.66,5.38,17.24,17.24,0,0,1-12.75-5.38A17.89,17.89,0,0,1,197.19,28.21Z"/></svg>